<?xml version="1.0" encoding="UTF-8" standalone="no"?>
<svg
   xmlns:dc="http://purl.org/dc/elements/1.1/"
   xmlns:cc="http://web.resource.org/cc/"
   xmlns:rdf="http://www.w3.org/1999/02/22-rdf-syntax-ns#"
   xmlns:svg="http://www.w3.org/2000/svg"
   xmlns="http://www.w3.org/2000/svg"
   xmlns:sodipodi="http://inkscape.sourceforge.net/DTD/sodipodi-0.dtd"
   xmlns:inkscape="http://www.inkscape.org/namespaces/inkscape"
   sodipodi:docbase="/home/jake"
   sodipodi:docname="shark.svg"
   height="695.89000pt"
   width="1403.2800pt"
   inkscape:version="0.41"
   sodipodi:version="0.32"
   id="svg1356"
   viewBox="0 0 405.0 204.0">
  <metadata
     id="metadata1385">
    <rdf:RDF
       id="RDF1387">
      <cc:Work
         id="Work1389"
         rdf:about="">
        <dc:format
           id="format1391">image/svg+xml</dc:format>
        <dc:type
           rdf:resource="http://purl.org/dc/dcmitype/StillImage"
           id="type1393" />
      </cc:Work>
    </rdf:RDF>
  </metadata>
  <defs
     id="defs1383" />
  <sodipodi:namedview
     inkscape:current-layer="svg1356"
     inkscape:window-y="25"
     inkscape:window-x="0"
     inkscape:cy="526.18109"
     inkscape:cx="372.04727"
     inkscape:zoom="0.34493828"
     inkscape:window-height="696"
     inkscape:window-width="1024"
     inkscape:pageshadow="2"
     inkscape:pageopacity="0.0"
     borderopacity="1.0"
     bordercolor="#666666"
     pagecolor="#ffffff"
     id="base" />
  <g
     style="fill:#000000;fill-opacity:1.0000000"
     id="g1358"
     stroke="none"
     fill="#000000"
     transform="translate(0,204) scale(0.100000,-0.100000)">
    <path
       style="fill-opacity:1.0000000;fill:#000000"
       id="path1360"
       d="M1521 1934 c-12 -15 -24 -39 -27 -53 -3 -14 -9 -35 -14 -46 -5 -11 -13 -42 -20 -69 -6 -27 -17 -54 -25 -60 -19 -15 -100 -172 -119 -231 l-17 -50 -92 -1 c-129 -2 -244 -18 -264 -36 -34 -30 -95 -48 -162 -48 -36 0 -95 -7 -131 -14 -77 -17 -225 -72 -245 -92 -7 -8 -18 -14 -24 -14 -6 0 -40 -24 -75 -54 -35 -30 -67 -52 -72 -48 -4 4 -4 1 0 -5 4 -7 2 -13 -4 -13 -16 0 -100 -81 -100 -96 0 -8 9 -14 20 -14 17 0 20 -7 20 -45 0 -50 16 -60 26 -17 4 15 12 33 18 41 9 11 8 13 -4 9 -8 -2 -17 -15 -21 -29 -6 -21 -7 -21 -8 9 -1 29 2 32 28 32 53 0 61 -8 61 -62 0 -45 2 -49 22 -46 15 2 25 13 32 36 8 27 13 32 40 32 51 0 61 -12 45 -49 l-14 -32 -6 38 -6 38 -2 -42 c-1 -53 20 -58 37 -9 10 28 17 33 35 29 31 -8 47 -23 47 -44 0 -11 5 -19 10 -19 5 0 10 9 10 20 0 17 7 20 45 20 25 0 45 -3 45 -6 0 -11 -34 -33 -52 -34 -9 0 -18 -4 -20 -8 -4 -12 -128 -41 -128 -30 0 4 -7 8 -15 8 -9 0 -15 -9 -15 -24 0 -29 -30 -43 -46 -22 -19 27 -44 19 -44 -14 0 -19 -7 -33 -20 -40 -18 -10 -20 -8 -20 20 0 39 -16 39 -25 0 -4 -18 -13 -30 -22 -30 -23 0 47 -58 109 -92 l51 -28 216 0 c177 0 233 -4 311 -20 75 -16 131 -20 269 -19 l174 1 91 -89 c86 -83 146 -165 146 -202 1 -39 39 -122 69 -150 18 -17 36 -31 39 -31 3 0 2 37 -2 83 -4 45 -12 150 -17 232 -5 83 -12 179 -15 214 -4 47 -2 66 8 73 7 5 99 6 215 2 178 -6 206 -5 227 10 14 9 56 21 93 26 37 6 97 15 132 21 36 5 72 16 81 24 28 25 119 36 291 34 90 -1 198 3 239 8 143 21 255 44 277 58 12 9 46 15 75 15 29 0 67 4 83 9 17 4 74 12 127 16 l97 7 30 -67 c17 -37 31 -73 31 -80 0 -15 103 -125 117 -125 5 0 22 -14 38 -30 36 -37 48 -38 66 -2 11 21 15 99 17 367 l3 340 -24 45 c-13 25 -37 70 -54 101 -38 72 -65 108 -80 109 -29 0 -62 -74 -73 -165 -6 -49 -16 -104 -21 -121 -5 -17 -9 -49 -9 -72 0 -41 -1 -42 -34 -42 -19 0 -37 4 -40 9 -3 4 -42 11 -87 15 -83 7 -124 21 -150 52 -8 9 -37 34 -65 55 -48 35 -57 38 -145 44 -52 4 -137 16 -189 26 -54 11 -158 22 -240 26 -92 3 -172 12 -219 24 -64 16 -110 19 -315 18 -133 -1 -284 -4 -336 -8 -52 -4 52 -5 231 -2 305 4 332 3 415 -17 57 -13 137 -22 225 -25 75 -3 181 -14 240 -26 57 -11 144 -23 192 -26 l89 -7 80 -66 c81 -65 81 -65 169 -76 48 -6 91 -14 95 -18 4 -5 27 -8 51 -8 l43 0 0 42 c0 23 4 55 9 72 5 17 15 72 21 121 8 67 18 100 37 129 l26 40 21 -27 c12 -14 45 -71 74 -126 l52 -100 0 -311 c0 -294 -7 -391 -30 -405 -5 -3 -34 17 -66 45 -31 27 -60 50 -65 50 -10 0 -48 65 -77 130 -31 72 -32 84 -13 93 23 11 -218 -1 -260 -13 -18 -6 -58 -10 -88 -10 -33 0 -71 -8 -95 -19 -38 -18 -94 -29 -271 -53 -39 -6 -158 -11 -265 -11 -184 -2 -198 -3 -240 -26 -25 -13 -70 -27 -100 -32 -30 -4 -86 -13 -123 -19 -37 -5 -79 -17 -93 -26 -22 -15 -48 -16 -220 -9 -149 5 -202 4 -226 -6 l-31 -12 7 -70 c3 -38 11 -77 16 -87 6 -10 10 -67 10 -127 0 -59 5 -146 10 -192 5 -47 8 -86 6 -88 -2 -2 -13 5 -25 14 -21 17 -31 42 -72 172 -10 34 -38 70 -119 153 l-107 108 -209 4 c-150 2 -226 8 -269 19 -46 13 -111 16 -278 17 -207 0 -220 1 -260 23 -50 26 -97 62 -97 73 0 4 3 5 6 2 5 -6 94 38 178 87 24 14 64 27 89 29 27 2 57 12 73 25 15 11 30 21 34 21 4 0 10 9 13 20 5 18 0 20 -41 21 -67 1 -81 4 -140 28 -29 11 -66 21 -82 21 -17 0 -30 5 -30 12 0 6 -3 9 -6 5 -3 -3 -24 1 -46 9 -22 8 -63 14 -90 14 l-49 0 28 34 c15 19 38 41 52 48 14 7 47 33 74 58 27 25 56 49 65 54 10 4 33 19 52 32 66 44 242 94 357 102 l105 8 39 -46 c22 -25 44 -63 49 -85 16 -62 32 -116 47 -160 11 -31 13 -34 9 -10 -2 17 -10 48 -16 70 -6 22 -12 47 -14 55 -1 9 -4 20 -8 25 -3 6 -8 23 -12 40 -4 16 -23 49 -42 72 -36 44 -40 53 -24 53 6 0 24 10 40 22 30 22 99 34 261 44 70 5 76 4 85 -17 9 -20 11 -18 24 22 20 65 118 267 134 276 7 4 26 51 41 103 30 103 41 130 54 130 5 0 11 -12 14 -27 19 -110 44 -173 99 -257 53 -80 58 -93 58 -142 0 -30 4 -54 10 -54 6 0 10 18 10 41 0 42 -36 126 -69 164 -38 43 -59 98 -93 245 -14 61 -22 66 -47 34z m-1207 -973 c10 -16 -6 -71 -20 -71 -10 0 -14 13 -14 40 0 28 4 40 14 40 8 0 17 -4 20 -9z m9 -185 c3 -8 -1 -17 -9 -20 -9 -4 -14 1 -14 14 0 23 15 27 23 6z" />
    <path
       style="fill-opacity:1.0000000;fill:#000000"
       id="path1362"
       d="M1510 1388 c0 -17 45 -105 65 -128 8 -9 15 -46 18 -90 l3 -75 2 76 c2 61 -2 81 -16 100 -10 13 -31 49 -45 78 -15 30 -27 48 -27 39z" />
    <path
       style="fill-opacity:1.0000000;fill:#000000"
       id="path1364"
       d="M1060 1385 c0 -4 16 -26 36 -50 31 -38 36 -52 41 -117 7 -85 20 -122 21 -58 1 61 -24 149 -50 179 -43 48 -48 52 -48 46z" />
    <path
       style="fill-opacity:1.0000000;fill:#000000"
       id="path1366"
       d="M1720 1386 c0 -5 11 -24 25 -42 29 -38 44 -98 45 -176 0 -32 4 -58 10 -58 26 0 2 183 -28 216 -10 11 -25 30 -35 44 -9 13 -17 20 -17 16z" />
    <path
       style="fill-opacity:1.0000000;fill:#000000"
       id="path1368"
       d="M1900 1376 c0 -7 7 -30 15 -50 9 -20 19 -76 24 -124 l8 -87 2 73 c1 73 -25 202 -41 202 -4 0 -8 -6 -8 -14z" />
    <path
       style="fill-opacity:1.0000000;fill:#000000"
       id="path1370"
       d="M1270 1376 c0 -3 17 -42 37 -88 23 -53 39 -106 43 -148 5 -48 9 -60 15 -46 12 26 -8 115 -41 184 -15 31 -27 62 -27 67 0 6 -6 16 -14 23 -7 7 -13 11 -13 8z" />
    <path
       style="fill-opacity:1.0000000;fill:#000000"
       id="path1372"
       d="M2081 1350 c0 -19 4 -51 10 -70 6 -19 14 -69 18 -110 l8 -75 2 69 c0 38 -3 83 -9 100 -5 17 -13 51 -18 76 -9 44 -10 44 -11 10z" />
    <path
       style="fill-opacity:1.0000000;fill:#000000"
       id="path1374"
       d="M2264 1359 c26 -20 26 -22 26 -155 0 -83 4 -134 10 -134 6 0 10 50 10 129 0 115 -2 131 -21 155 -11 14 -27 26 -36 26 -11 0 -7 -7 11 -21z" />
    <path
       style="fill-opacity:1.0000000;fill:#000000"
       id="path1376"
       d="M2432 1355 c2 -6 11 -26 20 -45 10 -19 20 -71 25 -115 4 -49 9 -67 11 -47 6 60 -17 175 -40 197 -11 11 -19 16 -16 10z" />
    <path
       style="fill-opacity:1.0000000;fill:#000000"
       id="path1378"
       d="M2636 1328 c4 -13 7 -49 6 -80 -1 -31 2 -59 8 -63 6 -4 10 14 10 48 0 67 -9 117 -22 117 -5 0 -6 -10 -2 -22z" />
    <path
       style="fill-opacity:1.0000000;fill:#000000"
       id="path1380"
       d="M430 1095 c0 -8 7 -15 15 -15 8 0 15 7 15 15 0 8 -7 15 -15 15 -8 0 -15 -7 -15 -15z" />
  </g>
</svg>
